Coordinates
version=1
nRows=14
nColumns=24
inDegrees=yes

Units are S.I. units (second, meters, Newtons, ...)
Angles are in degrees.

endheader
time	pelvis_tilt	pelvis_list	pelvis_rotation	pelvis_tx	pelvis_ty	pelvis_tz	hip_flexion_r	hip_adduction_r	hip_rotation_r	knee_angle_r	ankle_angle_r	subtalar_angle_r	mtp_angle_r	hip_flexion_l	hip_adduction_l	hip_rotation_l	knee_angle_l	ankle_angle_l	subtalar_angle_l	mtp_angle_l	lumbar_extension	lumbar_bending	lumbar_rotation
      1.14450000	     -3.21320758	      0.77958860	     -4.19054914	      0.22357824	      1.05890237	      0.27589644	     19.95281304	     -5.59212590	     -6.70137755	    -73.78786435	      2.69440110	     -6.09701518	      4.80517689	     17.40467114	     -0.30080675	      0.97009263	    -25.58781125	     15.49495928	      5.95963315	      2.34799176	     -4.34945815	     -2.69235188	      3.53471824
      1.14866667	     -3.22124091	      0.64239971	     -4.25392657	      0.22907775	      1.06041338	      0.27605979	     20.51029733	     -5.34497295	     -6.78509786	    -73.57101856	      2.93929106	     -5.81161841	      4.81160114	     16.80182111	     -0.46863658	      0.84115814	    -25.04324662	     15.48145207	      6.05519390	      2.35973100	     -4.36081239	     -2.55874193	      3.48199229
      1.15283333	     -3.21112694	      0.51052214	     -4.29505058	      0.23457991	      1.06191179	      0.27618232	     21.02682050	     -5.11624352	     -6.89751745	    -73.28803338	      3.20911525	     -5.46988096	      4.82425421	     16.17808900	     -0.62096476	      0.73251915	    -24.48815407	     15.48750584	      6.17302193	      2.37541758	     -4.39015181	     -2.42948761	      3.40948359
      1.15700000	     -3.19895550	      0.38410820	     -4.32115438	      0.24008313	      1.06336393	      0.27627604	     21.52424102	     -4.89948609	     -7.02744597	    -72.94475691	      3.47655565	     -5.13219703	      4.84195689	     15.55476546	     -0.76153602	      0.63395370	    -23.93108178	     15.48647823	      6.28587875	      2.39358742	     -4.42029989	     -2.30330985	      3.32074127
      1.16116667	     -3.19406556	      0.26299406	     -4.33717247	      0.24558000	      1.06475329	      0.27635701	     22.01380428	     -4.69032420	     -7.16624879	    -72.53942614	      3.73410951	     -4.81067681	      4.86255351	     14.94161080	     -0.89318792	      0.54444993	    -23.37218612	     15.46867320	      6.38384322	      2.41054521	     -4.44432074	     -2.17913784	      3.22795178
      1.16533333	     -3.17307185	      0.14443167	     -4.32965168	      0.25108397	      1.06611164	      0.27638606	     22.46548889	     -4.49985738	     -7.33635645	    -72.07668630	      4.00690688	     -4.46717148	      4.89400935	     14.31476087	     -1.01200946	      0.48069108	    -22.81409947	     15.47909966	      6.48561433	      2.43837244	     -4.48215734	     -2.05150666	      3.09414894
      1.16950000	     -3.15769990	      0.02593154	     -4.31354702	      0.25657446	      1.06742295	      0.27640606	     22.90662398	     -4.30788486	     -7.50905424	    -71.55079203	      4.26202694	     -4.16035026	      4.92937035	     13.69685574	     -1.12875193	      0.42967471	    -22.25348399	     15.45581362	      6.56612660	      2.46732686	     -4.51940620	     -1.92212299	      2.96142401
      1.17366667	     -3.15158694	     -0.10593141	     -4.28143334	      0.26206310	      1.06865632	      0.27639719	     23.33640777	     -4.10589843	     -7.70069254	    -70.96181551	      4.50416795	     -3.88128922	      4.96592190	     13.09926083	     -1.25776333	      0.38962019	    -21.71080758	     15.43863848	      6.65120720	      2.49593436	     -4.54655507	     -1.77308294	      2.82844837
      1.17783333	     -3.14172503	     -0.23395945	     -4.24108453	      0.26754086	      1.06985057	      0.27638359	     23.74505252	     -3.90887991	     -7.89469121	    -70.31379993	      4.74014953	     -3.62975080	      4.99948233	     12.50212173	     -1.38126387	      0.35516905	    -21.16962358	     15.39721587	      6.72905846	      2.51962547	     -4.58980664	     -1.63608773	      2.70069605
      1.18200000	     -3.11031969	     -0.34343641	     -4.18101429	      0.27301346	      1.07099162	      0.27630745	     24.11813393	     -3.75202970	     -8.11071081	    -69.62665202	      4.98690879	     -3.37471960	      5.04468802	     11.88651277	     -1.47497957	      0.34608388	    -20.62820709	     15.39192363	      6.79811947	      2.55468293	     -4.64608720	     -1.49544256	      2.51632882
      1.18616667	     -3.10680861	     -0.46315528	     -4.11210698	      0.27848268	      1.07202585	      0.27623102	     24.50182411	     -3.58059847	     -8.33179391	    -68.87977881	      5.21262541	     -3.16400324	      5.08651043	     11.31363753	     -1.58297014	      0.34293545	    -20.11036930	     15.37575995	      6.86397385	      2.58724964	     -4.67468912	     -1.35270818	      2.35572310
      1.19033333	     -3.08932912	     -0.56897423	     -4.03356929	      0.28393109	      1.07301017	      0.27613381	     24.85846192	     -3.43040121	     -8.55414906	    -68.08885248	      5.44205099	     -2.98011794	      5.13603443	     10.73013073	     -1.67146574	      0.35838359	    -19.59155316	     15.35413459	      6.92010164	      2.62775367	     -4.72868760	     -1.22198115	      2.16257919
      1.19450000	     -3.12508055	     -0.68353538	     -3.95091695	      0.28939870	      1.07382961	      0.27602930	     25.25578194	     -3.26734360	     -8.77950737	    -67.24643112	      5.65180537	     -2.85684470	      5.15942168	     10.21886519	     -1.77728600	      0.35340808	    -19.10337405	     15.32048394	      6.99937030	      2.64446643	     -4.70929665	     -1.07109712	      2.06870959
      1.19866667	     -3.10349042	     -0.78713559	     -3.84521721	      0.29482728	      1.07467398	      0.27588270	     25.57388444	     -3.13512071	     -9.02356882	    -66.35684752	      5.86679557	     -2.69697707	      5.20840380	      9.65221813	     -1.85850896	      0.40411275	    -18.61818849	     15.34767207	      7.03637252	      2.68800395	     -4.77071614	     -0.94171119	      1.80138279
